<?xml version="1.0" encoding="UTF-8" standalone="no"?>
<!-- Created with Inkscape (http://www.inkscape.org/) -->

<svg
   width="83.731926mm"
   height="8.8551826mm"
   viewBox="0 0 83.731926 8.8551826"
   version="1.1"
   id="svg1"
   inkscape:version="1.4.2 (f4327f4, 2025-05-13)"
   sodipodi:docname="cm8_monitor_label.svg"
   xmlns:inkscape="http://www.inkscape.org/namespaces/inkscape"
   xmlns:sodipodi="http://sodipodi.sourceforge.net/DTD/sodipodi-0.dtd"
   xmlns="http://www.w3.org/2000/svg"
   xmlns:svg="http://www.w3.org/2000/svg">
  <sodipodi:namedview
     id="namedview1"
     pagecolor="#505050"
     bordercolor="#eeeeee"
     borderopacity="1"
     inkscape:showpageshadow="0"
     inkscape:pageopacity="0"
     inkscape:pagecheckerboard="0"
     inkscape:deskcolor="#505050"
     inkscape:document-units="mm"
     inkscape:zoom="2.0334082"
     inkscape:cx="224.74583"
     inkscape:cy="155.65001"
     inkscape:window-width="1920"
     inkscape:window-height="1009"
     inkscape:window-x="-8"
     inkscape:window-y="-8"
     inkscape:window-maximized="1"
     inkscape:current-layer="layer1" />
  <defs
     id="defs1" />
  <g
     inkscape:label="Layer 1"
     inkscape:groupmode="layer"
     id="layer1"
     transform="translate(-21.166668,-48.154169)">
    <g
       id="g2"
       transform="matrix(0.26458333,0,0,0.26458333,3.9046661,-181.29594)">
      <path
         id="rect1"
         style="stroke-width:0;stroke-linecap:square;paint-order:markers fill stroke"
         transform="matrix(0.9999723,0.00744283,0,1,0,0)"
         d="M 65.244019,866.72742 H 381.71991 v 31.11293 H 65.244019 Z" />
      <path
         id="rect74"
         style="fill:#ff1616;stroke:#ffffff;stroke-width:1.26816"
         transform="matrix(0.99998063,0.00622347,0,1,0,0)"
         d="m 213.57298,875.41223 h 32.76835 v 5.80301 h -32.76835 z" />
      <path
         id="rect75"
         style="fill:#3dff16;stroke:#ffffff;stroke-width:1.26816"
         transform="matrix(0.99998063,0.00622344,0,1,0,0)"
         d="m 255.19748,875.31207 h 32.76834 v 5.80301 h -32.76834 z" />
      <path
         id="rect76"
         style="fill:#1680ff;stroke:#ffffff;stroke-width:1.268;stroke-linecap:square;paint-order:markers fill stroke"
         d="m 297.08099,877.4259 h 32.76772 v 5.80301 h -32.76772 z" />
      <g
         id="g1420"
         transform="matrix(0.09868904,0.00112793,0,0.10461067,137.42413,863.01905)"
         style="fill:#ffffff;fill-opacity:1;stroke-width:1.00003;stroke-dasharray:none">
        <path
           id="path24"
           d="m -517.03,134.9 v 26.4 h 50.4 v 100.8 h 40.8 V 161.3 h 45.601 l 11.999,-26.4 h -148.8"
           style="fill:#ffffff;fill-opacity:1;stroke-width:1.00003;stroke-dasharray:none" />
        <path
           id="path26"
           d="m -339.25,211.95 19.026,26.15 h 37.574 l 10.425,24 h 43.2 l -60,-127.2 h -55.2 l -60,127.2 h 43.2 z m 45.15,-0.25001 h -45.05 l 22.525,-49.499 22.525,49.499"
           style="fill:#ffffff;fill-opacity:1;stroke-width:1.00003;stroke-dasharray:none" />
        <path
           id="path28"
           d="m -224.23,262.1 h 38.4 v -74.825 l 71.999,74.825 h 33.602 V 134.9 h -38.402 v 72.324 L -188.23,134.9 h -36 v 127.2"
           style="fill:#ffffff;fill-opacity:1;stroke-width:1.00003;stroke-dasharray:none" />
        <path
           id="path30"
           d="M -16.629,163.7 H 9.772 c 19.199,0 37.2,13.45 37.2,34.8 0,21.35 -18.001,34.799 -37.2,34.799 H -16.629 Z M -58.63,134.9 v 127.2 h 90.201 c 28.475,0 56.2,-27.724 56.2,-56.199 v -14.8 c 0,-28.475 -27.725,-56.2 -56.2,-56.2 H -58.63"
           style="fill:#ffffff;fill-opacity:1;stroke-width:1.00003;stroke-dasharray:none" />
        <path
           id="path32"
           d="m 70.972,134.9 62.399,73.175 v 54.024 h 38.4 v -54.024 l 62.4,-73.175 h -45.599 l -36.001,42.199 -36,-42.199 H 70.972"
           style="fill:#ffffff;fill-opacity:1;stroke-width:1.00003;stroke-dasharray:none" />
      </g>
      <path
         id="rect77"
         style="fill:none;stroke:#ffffff;stroke-width:2.00855;stroke-linecap:square;paint-order:markers fill stroke"
         transform="matrix(0.99997181,0.00750851,0,1,0,0)"
         d="M 69.724136,869.94702 H 378.73927 v 24.47941 H 69.724136 Z" />
      <path
         d="m 187.68757,890.81842 h 1.76853 v -1.47232 h 2.50033 c 0.73181,0 0.86249,0.0174 0.98446,0.15681 0.13939,0.14811 0.17424,0.35719 0.17424,1.01059 v 0.30492 h 1.74239 v -0.54014 c 0.0349,-1.34165 -0.12197,-1.603 -1.0193,-1.70755 0.34848,-0.0523 0.51401,-0.11325 0.67953,-0.24393 0.31363,-0.23523 0.40075,-0.56628 0.40075,-1.42877 0,-1.01058 -0.13067,-1.39391 -0.57499,-1.66398 -0.37461,-0.22651 -0.37461,-0.22651 -2.37836,-0.22651 h -4.27758 z m 1.76853,-2.92722 v -1.42876 h 2.49162 c 0.8015,0.009 0.82764,0.009 0.94961,0.061 0.18295,0.0784 0.25264,0.24393 0.25264,0.63597 0,0.36591 -0.0523,0.54015 -0.19166,0.62726 -0.12197,0.0871 -0.12197,0.0871 -1.01059,0.10455 z m 9.62672,-0.3659 v 1.15869 h 2.3261 v 0.16553 c 0,0.64468 -0.0523,0.6621 -2.11701,0.6621 l -1.03673,-0.0174 c -0.49658,-0.0174 -0.65339,-0.0436 -0.8015,-0.16553 -0.19166,-0.15681 -0.24393,-0.45302 -0.24393,-1.43747 0,-1.50717 0.009,-1.51588 2.09958,-1.51588 1.32422,0 1.73368,0.0348 1.90792,0.15681 0.11326,0.0784 0.13068,0.1481 0.13939,0.48787 h 1.76853 c -0.009,-0.85377 -0.0784,-1.21096 -0.32234,-1.49846 -0.38332,-0.46173 -1.18483,-0.60112 -3.34539,-0.60112 -3.76358,0 -4.01622,0.18295 -4.01622,2.90108 0,1.90792 0.0958,2.33481 0.60983,2.67458 0.48788,0.33105 1.10642,0.40946 3.10147,0.40946 1.57686,0 2.1867,-0.0349 2.77911,-0.15682 0.69696,-0.13939 1.07158,-0.54014 1.14127,-1.21967 0.0261,-0.27878 0.061,-1.27195 0.061,-1.84694 v -0.15681 z m 4.75674,3.29312 h 4.18175 c 1.95148,-0.009 2.04731,-0.0174 2.37837,-0.13068 0.514,-0.17424 0.7318,-0.60113 0.7318,-1.42876 0,-0.93218 -0.23522,-1.27195 -1.00188,-1.40263 0.58371,-0.16553 0.78408,-0.50529 0.78408,-1.33293 0,-1.05415 -0.31363,-1.42005 -1.26323,-1.48975 -0.26136,-0.0174 -0.26136,-0.0174 -1.63785,-0.0261 h -4.17304 z m 1.68141,-3.51964 v -0.92346 h 2.49163 c 0.8015,0.009 0.82763,0.009 0.92346,0.0261 0.18296,0.0436 0.26136,0.17424 0.26136,0.41818 0,0.20908 -0.061,0.35719 -0.19166,0.40946 -0.11326,0.0523 -0.3659,0.0697 -0.99316,0.0697 z m 0,2.12573 v -0.96703 h 2.50034 c 1.02801,0.009 1.02801,0.009 1.11513,0.0261 0.20038,0.0436 0.27878,0.16553 0.27878,0.4356 0,0.24394 -0.061,0.37462 -0.20908,0.4356 -0.13068,0.061 -0.13068,0.061 -1.18483,0.0697 z m 17.97174,-0.84507 c -0.009,0.86249 -0.0348,0.8712 -1.97762,0.8712 -1.86436,0 -1.89049,-0.0174 -1.89049,-1.50717 0,-0.87991 0.0697,-1.21968 0.27878,-1.39392 0.17424,-0.13939 0.49658,-0.17423 1.603,-0.17423 1.11513,0 1.62914,0.0523 1.75982,0.16552 0.10454,0.0871 0.12197,0.16553 0.13939,0.54886 h 1.76853 v -0.2875 c 0,-0.93218 -0.17424,-1.35907 -0.67082,-1.61171 -0.40075,-0.20909 -0.94089,-0.27007 -2.49162,-0.27007 -3.04048,0 -3.67646,0.1481 -3.99009,0.93218 -0.13068,0.32234 -0.16552,0.8015 -0.16552,2.09958 0,0.74052 0.0174,1.21968 0.0436,1.48104 0.0697,0.59241 0.24393,0.91475 0.62726,1.13255 0.47044,0.27007 1.20225,0.33977 3.47607,0.33977 1.28938,0 1.92535,-0.0523 2.3958,-0.20038 0.64468,-0.20908 0.88862,-0.63597 0.88862,-1.57686 0,-0.0871 -0.009,-0.2178 -0.0174,-0.54886 z m 6.29876,-3.65902 c -2.43064,0 -2.97078,0.061 -3.41509,0.40075 -0.44431,0.33976 -0.57499,0.93218 -0.57499,2.5526 0,1.70755 0.12197,2.28254 0.57499,2.63102 0.44431,0.33977 0.98445,0.40075 3.43251,0.40075 2.40451,0 2.95336,-0.061 3.39767,-0.40075 0.44431,-0.33977 0.57499,-0.92347 0.57499,-2.59617 0,-1.66398 -0.13068,-2.24769 -0.57499,-2.58745 -0.44431,-0.33977 -0.98445,-0.40075 -3.41509,-0.40075 z m 0,1.50717 c 1.62043,0 1.81209,0.0261 2.01247,0.26136 0.15681,0.19166 0.20908,0.52271 0.20908,1.3852 0,0.70567 -0.061,0.95832 -0.26136,1.11513 -0.23522,0.17424 -0.52271,0.20909 -1.94277,0.20909 -1.46361,0 -1.74239,-0.0261 -1.97761,-0.20909 -0.20909,-0.16553 -0.26136,-0.40075 -0.26136,-1.12384 0,-0.74052 0.0349,-1.07157 0.13939,-1.27195 0.17424,-0.33977 0.33977,-0.3659 2.08216,-0.3659 z m 4.68704,-1.42005 v 5.81088 h 5.98513 v -1.48103 h -4.12948 v -4.32985 z m 10.37596,-0.0871 c -2.43064,0 -2.97079,0.061 -3.4151,0.40075 -0.44431,0.33976 -0.57499,0.93218 -0.57499,2.5526 0,1.70755 0.12197,2.28254 0.57499,2.63102 0.44431,0.33977 0.98446,0.40075 3.43252,0.40075 2.4045,0 2.95336,-0.061 3.39767,-0.40075 0.44431,-0.33977 0.57499,-0.92347 0.57499,-2.59617 0,-1.66398 -0.13068,-2.24769 -0.57499,-2.58745 -0.44431,-0.33977 -0.98445,-0.40075 -3.41509,-0.40075 z m 0,1.50717 c 1.62042,0 1.81209,0.0261 2.01246,0.26136 0.15682,0.19166 0.20909,0.52271 0.20909,1.3852 0,0.70567 -0.061,0.95832 -0.26136,1.11513 -0.23522,0.17424 -0.52272,0.20909 -1.94277,0.20909 -1.46361,0 -1.74239,-0.0261 -1.97762,-0.20909 -0.20908,-0.16553 -0.26136,-0.40075 -0.26136,-1.12384 0,-0.74052 0.0348,-1.07157 0.1394,-1.27195 0.17423,-0.33977 0.33976,-0.3659 2.08216,-0.3659 z m 4.68704,4.39083 h 1.76853 v -1.47232 h 2.50034 c 0.7318,0 0.86248,0.0174 0.98445,0.15681 0.13939,0.14811 0.17424,0.35719 0.17424,1.01059 v 0.30492 h 1.74239 v -0.54014 c 0.0349,-1.34165 -0.12196,-1.603 -1.0193,-1.70755 0.34848,-0.0523 0.51401,-0.11325 0.67954,-0.24393 0.31363,-0.23523 0.40075,-0.56628 0.40075,-1.42877 0,-1.01058 -0.13068,-1.39391 -0.57499,-1.66398 -0.37462,-0.22651 -0.37462,-0.22651 -2.37837,-0.22651 h -4.27758 z m 1.76853,-2.92722 v -1.42876 h 2.49163 c 0.8015,0.009 0.82763,0.009 0.9496,0.061 0.18295,0.0784 0.25265,0.24393 0.25265,0.63597 0,0.36591 -0.0523,0.54015 -0.19167,0.62726 -0.12196,0.0871 -0.12196,0.0871 -1.01058,0.10455 z m 12.30024,-2.88366 v 5.81088 h 1.74239 l -0.0436,-4.34727 h 0.31363 l 2.18671,4.34727 h 1.47232 l 2.1867,-4.34727 h 0.29621 l -0.0436,4.34727 h 1.74239 v -5.81088 h -3.18858 l -1.73368,3.77228 -1.72497,-3.77228 z m 14.53157,-0.0871 c -2.43064,0 -2.97078,0.061 -3.41509,0.40075 -0.44431,0.33976 -0.57499,0.93218 -0.57499,2.5526 0,1.70755 0.12197,2.28254 0.57499,2.63102 0.44431,0.33977 0.98445,0.40075 3.43251,0.40075 2.40451,0 2.95336,-0.061 3.39767,-0.40075 0.44431,-0.33977 0.57499,-0.92347 0.57499,-2.59617 0,-1.66398 -0.13068,-2.24769 -0.57499,-2.58745 -0.44431,-0.33977 -0.98445,-0.40075 -3.41509,-0.40075 z m 0,1.50717 c 1.62043,0 1.81209,0.0261 2.01247,0.26136 0.15681,0.19166 0.20908,0.52271 0.20908,1.3852 0,0.70567 -0.061,0.95832 -0.26136,1.11513 -0.23522,0.17424 -0.52271,0.20909 -1.94277,0.20909 -1.46361,0 -1.74239,-0.0261 -1.97761,-0.20909 -0.20909,-0.16553 -0.26136,-0.40075 -0.26136,-1.12384 0,-0.74052 0.0349,-1.07157 0.13939,-1.27195 0.17424,-0.33977 0.33977,-0.3659 2.08216,-0.3659 z m 4.68704,-1.42005 v 5.81088 h 1.80338 l -0.0436,-4.33856 h 0.19166 l 3.0579,4.33856 h 3.07533 v -5.81088 h -1.80338 l 0.0436,4.32985 h -0.18295 l -3.04048,-4.32985 z m 8.89492,0 v 5.81088 h 1.85565 v -5.81088 z m 2.2651,0 v 1.48103 h 2.58746 v 4.32985 h 1.85565 v -4.32985 h 2.58745 v -1.48103 z m 11.4214,-0.0871 c -2.43064,0 -2.97079,0.061 -3.4151,0.40075 -0.44431,0.33976 -0.57499,0.93218 -0.57499,2.5526 0,1.70755 0.12197,2.28254 0.57499,2.63102 0.44431,0.33977 0.98446,0.40075 3.43252,0.40075 2.4045,0 2.95336,-0.061 3.39767,-0.40075 0.44431,-0.33977 0.57499,-0.92347 0.57499,-2.59617 0,-1.66398 -0.13068,-2.24769 -0.57499,-2.58745 -0.44431,-0.33977 -0.98445,-0.40075 -3.41509,-0.40075 z m 0,1.50717 c 1.62042,0 1.81209,0.0261 2.01246,0.26136 0.15682,0.19166 0.20909,0.52271 0.20909,1.3852 0,0.70567 -0.061,0.95832 -0.26136,1.11513 -0.23522,0.17424 -0.52272,0.20909 -1.94277,0.20909 -1.46361,0 -1.74239,-0.0261 -1.97762,-0.20909 -0.20908,-0.16553 -0.26136,-0.40075 -0.26136,-1.12384 0,-0.74052 0.0348,-1.07157 0.1394,-1.27195 0.17423,-0.33977 0.33976,-0.3659 2.08216,-0.3659 z m 4.68704,4.39083 h 1.76853 v -1.47232 h 2.50034 c 0.7318,0 0.86248,0.0174 0.98445,0.15681 0.13939,0.14811 0.17424,0.35719 0.17424,1.01059 v 0.30492 h 1.74239 v -0.54014 c 0.0349,-1.34165 -0.12196,-1.603 -1.0193,-1.70755 0.34848,-0.0523 0.51401,-0.11325 0.67954,-0.24393 0.31363,-0.23523 0.40075,-0.56628 0.40075,-1.42877 0,-1.01058 -0.13068,-1.39391 -0.57499,-1.66398 -0.37462,-0.22651 -0.37462,-0.22651 -2.37837,-0.22651 h -4.27758 z m 1.76853,-2.92722 v -1.42876 h 2.49163 c 0.8015,0.009 0.82763,0.009 0.9496,0.061 0.18295,0.0784 0.25265,0.24393 0.25265,0.63597 0,0.36591 -0.0523,0.54015 -0.19167,0.62726 -0.12196,0.0871 -0.12196,0.0871 -1.01058,0.10455 z m 17.81491,0.68824 c -0.009,0.86249 -0.0349,0.8712 -1.97761,0.8712 -1.86437,0 -1.8905,-0.0174 -1.8905,-1.50717 0,-0.87991 0.0697,-1.21968 0.27878,-1.39392 0.17424,-0.13939 0.49658,-0.17423 1.603,-0.17423 1.11514,0 1.62914,0.0523 1.75982,0.16552 0.10455,0.0871 0.12197,0.16553 0.13939,0.54886 h 1.76853 v -0.2875 c 0,-0.93218 -0.17424,-1.35907 -0.67082,-1.61171 -0.40075,-0.20909 -0.94089,-0.27007 -2.49162,-0.27007 -3.04048,0 -3.67645,0.1481 -3.99008,0.93218 -0.13068,0.32234 -0.16553,0.8015 -0.16553,2.09958 0,0.74052 0.0174,1.21968 0.0436,1.48104 0.0697,0.59241 0.24393,0.91475 0.62726,1.13255 0.47045,0.27007 1.20225,0.33977 3.47608,0.33977 1.28937,0 1.92534,-0.0523 2.39579,-0.20038 0.64468,-0.20908 0.88862,-0.63597 0.88862,-1.57686 0,-0.0871 -0.009,-0.2178 -0.0174,-0.54886 z m 2.40451,-3.5719 v 5.81088 h 1.7424 l -0.0436,-4.34727 h 0.31363 l 2.1867,4.34727 h 1.47233 l 2.1867,-4.34727 h 0.29621 l -0.0436,4.34727 h 1.74239 v -5.81088 h -3.18858 l -1.73368,3.77228 -1.72497,-3.77228 z m 10.26271,3.13631 -0.009,1.17611 h 3.67646 v -1.17611 z m 5.34044,-0.29621 c -0.33106,0.0523 -0.46174,0.0871 -0.60113,0.15681 -0.38333,0.19167 -0.53143,0.55757 -0.53143,1.29809 0,0.77536 0.19166,1.14998 0.68824,1.36778 0.4356,0.18295 0.85378,0.2178 2.71814,0.2178 1.63785,0 2.04731,-0.0261 2.46549,-0.13068 0.70567,-0.18295 0.9496,-0.56628 0.9496,-1.4549 0,-0.67082 -0.11325,-1.01059 -0.41817,-1.22839 -0.14811,-0.11326 -0.2875,-0.15682 -0.71438,-0.22651 0.8015,-0.061 1.06286,-0.37462 1.06286,-1.28937 0,-0.75794 -0.19167,-1.1587 -0.67083,-1.37649 -0.3659,-0.16553 -1.2371,-0.24394 -2.67457,-0.24394 -1.14127,0 -2.08216,0.061 -2.44806,0.16553 -0.63598,0.18295 -0.88863,0.59241 -0.88863,1.4549 0,0.91475 0.26136,1.22838 1.06287,1.28937 z m 2.09958,-1.603 c 0.63597,0 1.32422,0.0261 1.51588,0.061 0.22651,0.0436 0.32235,0.17424 0.32235,0.44431 0,0.49658 0,0.49658 -1.72497,0.49658 -1.5246,0 -1.59429,-0.0174 -1.59429,-0.49658 0,-0.45302 0.15681,-0.50529 1.48103,-0.50529 z m 0.17424,2.2564 c 0.62726,0 1.33293,0.0261 1.4549,0.061 0.20909,0.0523 0.27878,0.15682 0.27878,0.45302 0,0.54014 -0.0784,0.56628 -1.89921,0.56628 -1.49846,0 -1.55944,-0.0174 -1.55944,-0.52272 0,-0.54014 0.0436,-0.55756 1.72497,-0.55756 z"
         id="text1"
         style="font-weight:bold;font-size:8.71197px;line-height:0.9;font-family:'Microgramma D Extended';-inkscape-font-specification:'Microgramma D Extended Bold';letter-spacing:0px;word-spacing:4.05px;fill:#ffffff;stroke-width:0;stroke-linecap:square;paint-order:markers fill stroke"
         transform="skewY(0.41435463)"
         aria-label="RGB COLOR MONITOR CM-8" />
    </g>
  </g>
</svg>
