<svg width="100%" viewBox="0 0 680 700" role="img" xmlns="http://www.w3.org/2000/svg">
<title>Tandy CM-8 color monitor front view v5 - from manual line drawing</title>
<desc>CM-8 front view based on Figure 1 from the owner's manual. Double-framed screen surround with chamfered corners, single button bottom right, rubber feet. Screen opening is a chamfered polygon.</desc>

<rect x="34" y="30" width="618" height="618" rx="10" fill="#505040" opacity="0.18"/>
<rect x="26" y="24" width="618" height="614" rx="9" fill="#d2cec0"/>
<rect x="26" y="24" width="618" height="9" rx="9" fill="#e4e0d2"/>
<rect x="26" y="24" width="9" height="614" rx="9" fill="#dcdad0"/>
<rect x="635" y="30" width="9" height="606" rx="4" fill="#b0ac9e"/>
<rect x="26" y="630" width="618" height="8" rx="4" fill="#a8a498"/>
<rect x="38" y="36" width="594" height="598" rx="7" fill="#cec9bc"/>
<rect x="48" y="42" width="574" height="484" rx="12" fill="#1a1a16"/>
<rect x="58" y="52" width="554" height="464" rx="9" fill="#242420"/>
<rect x="72" y="66" width="526" height="436" rx="6" fill="#161614"/>
<polygon points="72,86 92,66 72,66" fill="#0e0e0c"/>
<polygon points="578,66 598,66 598,86" fill="#0e0e0c"/>
<polygon points="72,482 72,502 92,502" fill="#0e0e0c"/>
<polygon points="598,482 598,502 578,502" fill="#0e0e0c"/>
<polygon points="92,72 578,72 592,86 592,488 578,502 92,502 78,488 78,86" fill="#0b0c09"/>
<rect x="38" y="534" width="594" height="1.5" fill="#b4b0a4"/>
<rect x="38" y="536" width="594" height="1" fill="#dedad0"/>
<rect x="38" y="540" width="594" height="1.5" fill="#b4b0a4"/>
<rect x="38" y="542" width="594" height="1" fill="#dedad0"/>
<rect x="38" y="544" width="594" height="76" rx="5" fill="#464442"/>
<rect x="38" y="544" width="594" height="3" fill="#343230"/>
<rect x="38" y="618" width="594" height="2" rx="2" fill="#545250"/>
<rect x="54" y="558" width="270" height="26" rx="3" fill="#080808"/>
<text x="70" y="575" fill="#ede9dd" font-size="11" font-family="sans-serif" font-weight="bold" letter-spacing="1.5">TANDY</text>
<rect x="116" y="563" width="16" height="5" rx="1" fill="#cc2020"/>
<rect x="135" y="563" width="16" height="5" rx="1" fill="#22aa22"/>
<rect x="154" y="563" width="16" height="5" rx="1" fill="#2244cc"/>
<text x="178" y="572" fill="#b8b5a8" font-size="6.5" font-family="sans-serif">RGB HIGH RESOLUTION COLOR MONITOR CM-8</text>
<circle cx="490" cy="550" r="3.5" fill="#cc0000"/>
<circle cx="489" cy="549" r="1.2" fill="#ff7777" opacity="0.7"/>
<rect x="570" y="556" width="48" height="30" rx="4" fill="#545250" stroke="#343230" stroke-width="1"/>
<rect x="571" y="557" width="46" height="12" rx="3" fill="#646260"/>
<text x="594" y="596" text-anchor="middle" fill="#848280" font-size="7" font-family="sans-serif" letter-spacing="0.8">POWER</text>
<rect x="80" y="632" width="60" height="14" rx="6" fill="#282826"/>
<rect x="82" y="633" width="56" height="6" rx="4" fill="#343230"/>
<rect x="530" y="632" width="60" height="14" rx="6" fill="#282826"/>
<rect x="532" y="633" width="56" height="6" rx="4" fill="#343230"/>
<polygon points="92,72 578,72 592,86 592,488 578,502 92,502 78,488 78,86"
  fill="none" stroke="#ff4444" stroke-width="1.5" stroke-dasharray="8,4" opacity="0.55"/>
<text x="335" y="290" text-anchor="middle" fill="#ff6666" font-size="14" font-family="sans-serif" opacity="0.65">screen opening</text>
<text x="335" y="310" text-anchor="middle" fill="#ff6666" font-size="9" font-family="sans-serif" opacity="0.65">chamfered polygon  delete annotation before use</text>
</svg>
