<svg width="100%" viewBox="0 0 680 640" role="img" xmlns="http://www.w3.org/2000/svg">
<title>Tandy CM-11 color monitor front view v3</title>
<desc>Accurate front-face SVG of Tandy CM-11/CM-8. Warm cream case, deep black screen recess with rounded CRT glass corners, narrow charcoal bottom strip with label and power button. Based on CM-11 reference photo.</desc>

<rect x="32" y="28" width="626" height="592" rx="12" fill="#60604a" opacity="0.2"/>
<rect x="24" y="22" width="626" height="592" rx="10" fill="#d4d0c2"/>
<rect x="24" y="22" width="626" height="10" rx="10" fill="#e8e4d6"/>
<rect x="24" y="22" width="10" height="592" rx="10" fill="#e0dcd0"/>
<rect x="638" y="30" width="12" height="582" rx="4" fill="#b0ac9e"/>
<rect x="24" y="600" width="626" height="14" rx="6" fill="#a8a498"/>
<rect x="36" y="34" width="602" height="578" rx="8" fill="#d0ccc0"/>
<rect x="36" y="534" width="602" height="2" fill="#b8b4a8"/>
<rect x="36" y="536" width="602" height="1" fill="#e0dcd0"/>
<rect x="36" y="537" width="602" height="60" rx="6" fill="#4a4844"/>
<rect x="36" y="537" width="602" height="3" fill="#383634"/>
<rect x="36" y="595" width="602" height="2" rx="2" fill="#585654"/>
<rect x="52" y="548" width="280" height="28" rx="3" fill="#0a0a0a"/>
<text x="68" y="566" fill="#f0ece0" font-size="12" font-family="sans-serif" font-weight="bold" letter-spacing="1.5">TANDY</text>
<rect x="115" y="554" width="18" height="6" rx="1" fill="#cc2020"/>
<rect x="136" y="554" width="18" height="6" rx="1" fill="#22aa22"/>
<rect x="157" y="554" width="18" height="6" rx="1" fill="#2244cc"/>
<text x="182" y="563" fill="#c0bdb0" font-size="7" font-family="sans-serif" letter-spacing="0.3">RGB HIGH RESOLUTION COLOR MONITOR CM-11</text>
<circle cx="520" cy="541" r="4" fill="#cc0000"/>
<circle cx="519" cy="540" r="1.5" fill="#ff6666" opacity="0.7"/>
<rect x="590" y="547" width="40" height="28" rx="4" fill="#5a5854" stroke="#3a3836" stroke-width="1"/>
<rect x="591" y="548" width="38" height="10" rx="3" fill="#6a6864"/>
<text x="610" y="584" text-anchor="middle" fill="#8a8884" font-size="7" font-family="sans-serif" letter-spacing="1">POWER</text>
<rect x="44" y="38" width="586" height="490" rx="20" fill="#161614"/>
<rect x="50" y="44" width="574" height="478" rx="17" fill="#101010"/>
<rect x="56" y="50" width="562" height="466" rx="14" fill="#0c0c0a"/>
<rect x="62" y="56" width="550" height="454" rx="12" fill="#0a0a08"/>
<rect x="70" y="64" width="534" height="438" rx="10" fill="#080808"/>
<rect x="78" y="70" width="518" height="426" rx="20" fill="#0d0e0b"/>
<ellipse cx="200" cy="150" rx="200" ry="110" fill="#181c14" opacity="0.6"/>
<ellipse cx="170" cy="120" rx="110" ry="60" fill="#1e2418" opacity="0.4"/>
<ellipse cx="150" cy="100" rx="60" ry="32" fill="#242c1e" opacity="0.3"/>
<ellipse cx="88" cy="80" rx="30" ry="20" fill="#040404" opacity="0.8"/>
<ellipse cx="586" cy="80" rx="30" ry="20" fill="#040404" opacity="0.8"/>
<ellipse cx="88" cy="486" rx="30" ry="20" fill="#040404" opacity="0.8"/>
<ellipse cx="586" cy="486" rx="30" ry="20" fill="#040404" opacity="0.8"/>
<rect x="78" y="70" width="518" height="426" rx="20" fill="none" stroke="#ff4444" stroke-width="1.5" stroke-dasharray="8,4" opacity="0.6"/>
<text x="337" y="286" text-anchor="middle" fill="#ff6666" font-size="15" font-family="sans-serif" opacity="0.7">screen opening</text>
<text x="337" y="308" text-anchor="middle" fill="#ff6666" font-size="10" font-family="sans-serif" opacity="0.7">518 x 426  rx=20  delete before use</text>
</svg>
