<svg width="100%" viewBox="0 0 680 720" role="img" xmlns="http://www.w3.org/2000/svg">
<title>Tandy CM-8 color monitor front view v6 - from 3D model screenshot</title>
<desc>CM-8 front view based on high-resolution 3D model screenshot. Cool neutral grey case, deep recess with visible grey walls, rectangular red LED, square power button, wide flat base pedestal. Screen opening: x=92 y=82 w=496 h=410 rx=22.</desc>

<rect x="30" y="22" width="626" height="640" rx="14" fill="#808898" opacity="0.25"/>
<rect x="16" y="624" width="654" height="46" rx="6" fill="#b0b4ba"/>
<rect x="16" y="624" width="654" height="5" fill="#c4c8ce"/>
<rect x="16" y="664" width="654" height="6" rx="4" fill="#9a9ea4"/>
<rect x="26" y="20" width="628" height="610" rx="12" fill="#b8babe"/>
<rect x="26" y="20" width="628" height="10" rx="12" fill="#ced2d8"/>
<rect x="26" y="20" width="10" height="610" rx="12" fill="#c8ccd2"/>
<rect x="638" y="28" width="16" height="598" rx="6" fill="#9a9ea6"/>
<rect x="26" y="620" width="628" height="10" rx="6" fill="#989ca4"/>
<rect x="38" y="32" width="604" height="598" rx="9" fill="#b4b8be"/>
<rect x="50" y="42" width="580" height="490" rx="18" fill="#606468"/>
<rect x="54" y="46" width="572" height="482" rx="15" fill="#787c82"/>
<rect x="60" y="52" width="560" height="470" rx="13" fill="#6a6e74"/>
<rect x="68" y="60" width="544" height="454" rx="10" fill="#585c62"/>
<rect x="76" y="68" width="528" height="438" rx="8" fill="#4e5258"/>
<rect x="84" y="76" width="512" height="422" rx="6" fill="#18181a"/>
<rect x="92" y="82" width="496" height="410" rx="22" fill="#0e0f10"/>
<rect x="38" y="540" width="604" height="2" fill="#9ea2a8"/>
<rect x="38" y="543" width="604" height="1" fill="#cdd1d7"/>
<rect x="38" y="548" width="604" height="2" fill="#9ea2a8"/>
<rect x="38" y="551" width="604" height="1" fill="#cdd1d7"/>
<rect x="38" y="554" width="604" height="72" rx="6" fill="#b0b4ba"/>
<rect x="38" y="554" width="604" height="4" fill="#c8ccd2"/>
<rect x="38" y="622" width="604" height="3" rx="2" fill="#909498"/>
<rect x="54" y="566" width="310" height="28" rx="3" fill="#0c0c0c"/>
<text x="72" y="584" fill="#eeebe0" font-size="13" font-family="sans-serif" font-weight="bold" letter-spacing="2">TANDY</text>
<rect x="126" y="577" width="8" height="2" fill="#888"/>
<rect x="140" y="572" width="22" height="8" rx="1" fill="#cc2020"/>
<rect x="166" y="572" width="22" height="8" rx="1" fill="#22aa22"/>
<rect x="192" y="572" width="22" height="8" rx="1" fill="#2244cc"/>
<text x="222" y="583" fill="#b0ada4" font-size="7" font-family="sans-serif" letter-spacing="0.5">RGB COLOR MONITOR CM-8</text>
<rect x="490" y="572" width="14" height="8" rx="2" fill="#cc0000"/>
<rect x="491" y="573" width="8" height="4" rx="1" fill="#ff5555" opacity="0.7"/>
<rect x="564" y="562" width="60" height="46" rx="5" fill="#a8acb2" stroke="#888c94" stroke-width="1"/>
<rect x="566" y="564" width="56" height="18" rx="4" fill="#bcc0c6"/>
<rect x="568" y="566" width="52" height="10" rx="3" fill="#cacdd4"/>
</svg>
