<svg xmlns="http://www.w3.org/2000/svg" viewBox="0 0 64 64" width="32" height="32">

  <!-- Top bun: dome from previous approved version -->
  <path d="M 6,26
           Q 6,10 32,10
           Q 58,10 58,26
           Z"
        fill="#c8922a"/>

  <!-- gap -->

  <!-- Lettuce: y=31 -->
  <rect x="4" y="31" width="56" height="4" rx="1" fill="#4a9e3f"/>
  <path d="M4,31 Q10,28.5 16,31 Q22,28.5 28,31 Q34,28.5 40,31 Q46,28.5 52,31 Q58,28.5 60,31"
        fill="none" stroke="#3a8e2f" stroke-width="1.5"/>

  <!-- gap -->

  <!-- Cheese: y=39 -->
  <rect x="5" y="39" width="54" height="3" rx="1" fill="#f0c030"/>
  <polygon points="5,39 5,42 2,43 2,40" fill="#f0c030"/>
  <polygon points="59,39 59,42 62,43 62,40" fill="#f0c030"/>

  <!-- gap -->

  <!-- Patty: y=47 -->
  <rect x="6" y="47" width="52" height="7" rx="2" fill="#5c3010"/>

  <!-- gap -->

  <!-- Bottom bun: y=58 -->
  <rect x="6" y="58" width="52" height="5" rx="2" fill="#c8922a"/>

</svg>
